<?xml version="1.0" encoding="UTF-8"?>
<svg id="a" xmlns="http://www.w3.org/2000/svg" viewBox="0 0 839.602 196.652">
  <defs>
    <style>
      .cls-1 {
        fill: #fff;
      }
    </style>
  </defs>
  <path class="cls-1" d="M674.75,88.669c-24.805,0-41.463,15.895-41.463,41.464,0,24.679,16.658,41.463,41.463,41.463,22.366,0,41.463-15.759,41.463-41.463,0-25.056-15.508-41.464-41.463-41.464ZM674.313,155.313c-14.795,0-24.73-10.011-24.73-24.73,0-15.25,9.936-24.73,24.73-24.73,15.481,0,24.73,9.786,24.73,24.73,0,15.331-11.391,24.73-24.73,24.73Z"/>
  <path class="cls-1" d="M399.941,105.634c12.7,0,21.22,6.564,23.905,17.154l17.68-.014c-2.737-21.024-17.689-34.38-41.146-34.38-24.887,0-41.601,15.947-41.601,41.601,0,24.76,16.714,41.601,41.601,41.601,18.602,0,34.951-10.866,39.999-29.273h-18.318c-4.155,8.213-12.648,12.936-22.12,12.936-14.844,0-24.813-10.044-24.813-24.812,0-15.301,9.969-24.813,24.813-24.813Z"/>
  <path class="cls-1" d="M306.165,88.527c-24.809,0-41.471,15.897-41.471,41.471,0,24.683,16.661,41.471,41.471,41.471,22.37,0,41.471-15.762,41.471-41.471,0-25.061-15.511-41.471-41.471-41.471h0ZM305.728,155.183c-14.797,0-24.735-10.013-24.735-24.735,0-15.253,9.938-24.735,24.735-24.735,15.484,0,24.735,9.788,24.735,24.735,0,15.334-11.393,24.735-24.735,24.735h0Z"/>
  <rect class="cls-1" x="235.939" y="63.334" width="16.838" height="108.262"/>
  <path class="cls-1" d="M579.191,88.268c-24.925,0-41.664,15.971-41.664,41.664,0,.19.01.374.012.563h-.012v66.157h16.153v-32.643c6.815,4.862,15.501,7.587,25.511,7.587,22.474,0,41.664-15.836,41.664-41.664,0-25.177-15.583-41.664-41.664-41.664ZM578.752,155.235c-14.866,0-24.85-10.06-24.85-24.85,0-15.324,9.984-24.85,24.85-24.85,15.556,0,24.85,9.833,24.85,24.85,0,15.405-11.446,24.85-24.85,24.85Z"/>
  <path class="cls-1" d="M525.318,94.398h-2.275c-5.708,0-13.031.042-18.943.007h-1.193c-9.787,9.512-20.255,20.408-29.916,30.051-.477.476-.976.934-1.829,1.748v-62.573h-17.507v107.837h17.542v-34.062c.852.811,1.389,1.312,1.914,1.823l31.516,32.239h22.145l-38.792-40.151c12.381-12.242,24.68-24.404,37.338-36.919Z"/>
  <polygon class="cls-1" points="839.602 88.373 806.481 88.373 806.481 63.404 789.293 63.404 789.293 88.373 789.293 102.908 789.293 171.148 806.481 171.148 806.481 102.908 839.602 102.908 839.602 88.373"/>
  <path class="cls-1" d="M770.176,88.626c-24.469,0-41.925,15.538-42.093,40.558l-.008.002v42.344h16.343v-44.921c.292-4.911,1.432-8.405,3.167-11.232,4.333-8.279,13.227-13.076,24.768-13.076,1.234,0,2.429.057,3.592.159v-13.834h-5.769Z"/>
  <path class="cls-1" d="M182.816,88.329c-10.01,0-18.695,2.725-25.511,7.587v-32.643h-16.153v66.157h.012c-.002.189-.012.373-.012.563,0,25.693,16.739,41.664,41.664,41.664,26.081,0,41.664-16.487,41.664-41.664,0-25.828-19.19-41.664-41.664-41.664ZM182.377,154.391c-14.866,0-24.85-9.526-24.85-24.85,0-14.79,9.984-24.85,24.85-24.85,13.405,0,24.85,9.445,24.85,24.85,0,15.017-9.294,24.85-24.85,24.85Z"/>
  <path class="cls-1" d="M42.796,64.062V0h-17.502L0,25.294v146.175h82.113l25.294-25.294v-82.113s-64.611,0-64.611,0ZM61.906,151.262H20.207v-41.698h41.698v41.698h0Z"/>
</svg>