<?xml version="1.0" encoding="UTF-8"?>
<svg id="Layer_1" data-name="Layer 1" xmlns="http://www.w3.org/2000/svg" viewBox="0 0 178.565 24">
  <defs>
    <style>
      .cls-1 {
        fill: #fff;
      }
    </style>
  </defs>
  <path class="cls-1" d="M12.199,5.832l12.215,6.98v-5.824L12.191,0,0,6.995v5.832l12.199-6.995Z"/>
  <path class="cls-1" d="M22.46,19.862l1.954-1.128v-3.537l-12.222-6.921L0,15.197v3.553l1.954,1.113,10.238-5.816,10.269,5.816Z"/>
  <path class="cls-1" d="M12.199,22.261l3.057,1.739,5.02-2.847-8.084-4.601-8.054,4.601,5.02,2.847,3.041-1.739Z"/>
  <path class="cls-1" d="M34.828,17.486V7.083h4.067c1.598,0,2.583.357,3.296,1.199.813.985,1.256,2.383,1.256,3.996,0,1.627-.442,3.025-1.256,3.996-.714.842-1.712,1.213-3.296,1.213h-4.067ZM36.969,15.703h1.927c1.613,0,2.412-1.127,2.412-3.411,0-2.298-.799-3.425-2.412-3.425h-1.927v6.835ZM48.295,13.005v2.697h5.637v1.784h-7.777V7.083h7.52v1.784h-5.38v2.355h4.98v1.784h-4.98ZM56.643,17.486V7.083h4.067c1.598,0,2.583.357,3.296,1.199.813.985,1.256,2.383,1.256,3.996,0,1.627-.442,3.025-1.256,3.996-.714.842-1.712,1.213-3.296,1.213h-4.067ZM58.783,15.703h1.926c1.612,0,2.412-1.127,2.412-3.411,0-2.298-.799-3.425-2.412-3.425h-1.926v6.835ZM69.881,7.083v10.403h-2.141V7.083h2.141ZM81.545,10.608h-2.041c-.285-1.27-.985-1.869-2.226-1.869-1.684,0-2.697,1.37-2.697,3.667,0,2.269.97,3.61,2.626,3.61,1.327,0,2.155-.756,2.298-2.084h2.084c-.129,2.383-1.841,3.882-4.438,3.882-2.897,0-4.709-2.083-4.709-5.437s1.827-5.466,4.766-5.466c1.556,0,2.84.585,3.639,1.641.442.585.628,1.156.699,2.055ZM89.841,15.389h-3.896l-.699,2.098h-2.183l3.696-10.403h2.369l3.596,10.403h-2.198l-.685-2.098ZM89.256,13.605l-1.356-4.067-1.356,4.067h2.711ZM98.326,8.867v8.619h-2.141v-8.619h-3.154v-1.784h8.334v1.784h-3.04ZM105.711,13.005v2.697h5.637v1.784h-7.777V7.083h7.52v1.784h-5.38v2.355h4.981v1.784h-4.981ZM114.059,17.486V7.083h4.067c1.599,0,2.583.357,3.297,1.199.813.985,1.256,2.383,1.256,3.996,0,1.627-.443,3.025-1.256,3.996-.714.842-1.713,1.213-3.297,1.213h-4.067ZM116.2,15.703h1.926c1.613,0,2.412-1.127,2.412-3.411,0-2.298-.799-3.425-2.412-3.425h-1.926v6.835ZM131.55,17.486l-4.181-7.192v7.192h-2.14V7.083h2.197l4.124,7.078v-7.078h2.141v10.403h-2.141ZM141.205,6.912c1.512,0,2.654.457,3.567,1.441.928.985,1.456,2.454,1.456,4.081,0,1.47-.557,2.982-1.456,3.938-.899.97-2.069,1.441-3.553,1.441s-2.654-.471-3.553-1.441c-.928-.985-1.456-2.454-1.456-4.01s.528-3.011,1.456-4.01c.884-.956,2.083-1.441,3.539-1.441ZM141.219,8.739c-1.741,0-2.868,1.427-2.868,3.625s1.127,3.625,2.868,3.625c1.712,0,2.868-1.427,2.868-3.568,0-2.255-1.113-3.682-2.868-3.682ZM148.844,17.486V7.083h4.067c1.598,0,2.583.357,3.296,1.199.814.985,1.256,2.383,1.256,3.996,0,1.627-.442,3.025-1.256,3.996-.713.842-1.712,1.213-3.296,1.213h-4.067ZM150.984,15.703h1.927c1.612,0,2.411-1.127,2.411-3.411,0-2.298-.799-3.425-2.411-3.425h-1.927v6.835ZM162.31,13.005v2.697h5.637v1.784h-7.777V7.083h7.52v1.784h-5.38v2.355h4.981v1.784h-4.981ZM178.194,10.251h-1.998c-.071-1.056-.828-1.627-2.183-1.627-1.114,0-1.799.499-1.799,1.284,0,.756.443,1.056,1.97,1.356l1.627.314c1.926.371,2.754,1.227,2.754,2.868,0,2.126-1.584,3.368-4.267,3.368-2.654,0-4.181-1.213-4.31-3.439h2.084c.071,1.113.885,1.727,2.34,1.727,1.299,0,2.098-.528,2.098-1.399,0-.842-.528-1.241-1.955-1.513l-1.456-.285c-2.112-.4-2.925-1.184-2.925-2.797,0-2.026,1.441-3.197,3.938-3.197,2.626,0,4.067,1.184,4.082,3.339Z"/>
</svg>