<svg width="2580" height="549" viewBox="0 0 2580 549" fill="none" xmlns="http://www.w3.org/2000/svg">
<rect opacity="0.82" width="127.09" height="127.09" transform="matrix(0.708934 0.705274 -0.708934 0.705274 269.837 3.89697)" fill="white"/>
<rect opacity="0.82" width="127.09" height="127.09" transform="matrix(0.708934 0.705274 -0.708934 0.705274 179.735 93.5308)" fill="white"/>
<rect width="127.09" height="127.09" transform="matrix(0.708934 0.705274 -0.708934 0.705274 269.837 183.166)" fill="white"/>
<rect opacity="0.64" width="127.09" height="127.09" transform="matrix(0.708934 0.705274 -0.708934 0.705274 450.04 183.166)" fill="white"/>
<rect opacity="0.64" width="127.09" height="127.09" transform="matrix(0.708934 0.705274 -0.708934 0.705274 179.735 272.8)" fill="white"/>
<rect opacity="0.56" width="127.09" height="127.09" transform="matrix(0.708934 0.705274 -0.708934 0.705274 269.837 362.431)" fill="white"/>
<path d="M695.156 166.857V212.145H897.352V166.857H695.156ZM743.135 289.136H877.132V243.847H743.135L695.156 243.524V380.36H897.352V335.071H743.135V289.136Z" fill="white"/>
<path d="M1136.02 259.051C1132.25 233.819 1119.23 210.528 1099.01 193.706C1080.5 178.179 1056.86 168.798 1032.52 167.18L931.769 166.857V212.145H1026.7C1030.13 212.469 1033.55 212.792 1036.64 213.439C1046.23 215.38 1055.14 219.262 1063.02 224.761C1076.05 233.819 1084.62 247.082 1088.04 261.963C1088.73 265.845 1089.07 270.05 1089.07 273.932C1089.07 278.461 1088.73 282.666 1087.7 286.871C1082.22 311.78 1060.63 331.19 1033.9 335.071H979.748V243.847H931.769V380.36H1037.66C1088.04 374.537 1128.82 337.336 1136.02 289.783C1136.71 284.607 1137.39 279.431 1137.39 273.932C1137.39 269.08 1137.05 263.904 1136.02 259.051Z" fill="white"/>
<path d="M1244.74 244.171L1250.57 256.463L1264.28 284.607L1267.02 289.783H1322.88V335.071H1262.22C1228.98 330.543 1203.96 304.34 1203.96 273.932C1203.96 243.2 1228.98 216.998 1262.22 212.469H1370.52V167.18H1272.16C1241.32 167.18 1212.53 178.179 1190.94 197.912C1168.66 218.292 1156.67 245.141 1156.67 273.932C1156.67 302.722 1168.66 329.572 1190.94 349.629C1212.53 369.685 1241.32 380.36 1272.16 380.36H1371.2V244.171H1244.74Z" fill="white"/>
<path d="M1405.33 166.857V212.145H1607.53V166.857H1405.33ZM1453.31 289.136H1587.31V243.847H1453.31L1405.33 243.524V380.36H1607.53V335.071H1453.31V289.136Z" fill="white"/>
<path d="M1686.86 166.857H1626.88L1633.39 177.855L1707.42 304.34L1737.58 253.229L1686.86 166.857ZM1826.68 166.857L1824.97 169.768L1772.53 259.375L1762.59 276.196L1756.77 285.901L1726.61 337.012L1750.94 380.36H1763.62L1880.48 177.855L1887 166.857H1826.68Z" fill="white"/>
<path d="M1830.87 367.744L1823.67 380.36H1883.99L1886.38 376.155L1935.39 292.371L1905.23 241.259L1830.87 367.744ZM2078.3 367.744L1982.34 204.382L1962.46 170.739L1960.41 166.21H1948.76L1946.36 170.739L1926.82 204.382L1924.42 208.587L1954.58 260.022L1955.27 261.316L2022.78 376.155L2025.18 380.36H2085.5L2078.3 367.744Z" fill="white"/>
<path d="M2113.16 380.36H2161.14V308.222L2113.16 262.933V380.36ZM2248.53 166.533V281.696L2124.81 165.239H2113.16V218.292L2284.86 380.36H2296.51V166.533H2248.53Z" fill="white"/>
<path d="M2322.83 367.744L2315.64 380.36H2375.95L2378.35 376.155L2427.36 292.371L2397.2 241.259L2322.83 367.744ZM2570.27 367.744L2474.31 204.382L2454.43 170.739L2452.38 166.21H2440.72L2438.33 170.739L2418.79 204.382L2416.39 208.587L2446.55 260.022L2447.24 261.316L2514.75 376.155L2517.15 380.36H2577.46L2570.27 367.744Z" fill="white"/>
</svg>
