<?xml version="1.0" encoding="UTF-8"?>
<svg id="Layer_1" data-name="Layer 1" xmlns="http://www.w3.org/2000/svg" viewBox="0 0 62.706 25.223">
  <defs>
    <style>
      .cls-1 {
        fill: #fff;
      }
    </style>
  </defs>
  <path class="cls-1" d="M16.304,13.456c0,3.333-1.118,6.129-3.353,8.381-2.235,2.259-4.959,3.385-8.171,3.385H0v-4.833h4.779c1.902,0,3.501-.661,4.799-1.991,1.298-1.323,1.946-2.973,1.946-4.937l-.038-13.463h4.818v13.456Z"/>
  <path class="cls-1" d="M19.741.229h4.779l-.077,4.754h-4.741l.039-4.754ZM19.741,6.908h4.779v18.308h-4.818l.039-18.308Z"/>
  <path class="cls-1" d="M32.86,5.218h8.21v4.872h-8.287v6.744c0,1.002.308,1.84.932,2.521s1.4,1.028,2.332,1.028h4.979v4.832h-4.934c-2.261,0-4.169-.819-5.724-2.462-1.555-1.644-2.332-3.641-2.332-6.005V.065h4.741l.077,5.147.006.007Z"/>
  <path class="cls-1" d="M59.854,22.348c-1.902,1.919-4.227,2.875-6.977,2.875s-5.107-.963-6.996-2.894c-1.889-1.932-2.833-4.295-2.833-7.104s.951-5.18,2.852-7.124c1.901-1.945,4.227-2.914,6.976-2.914s5.075.969,6.977,2.914c1.901,1.945,2.852,4.315,2.852,7.124s-.951,5.212-2.852,7.124ZM56.404,11.498c-.938-.963-2.113-1.441-3.527-1.441s-2.608.498-3.584,1.499c-.977,1.002-1.465,2.22-1.465,3.667s.488,2.671,1.465,3.667c.976,1.002,2.171,1.5,3.584,1.5s2.64-.491,3.604-1.48c.964-.989,1.445-2.213,1.445-3.687l-.116-.196c0-1.395-.469-2.567-1.407-3.529Z"/>
</svg>