<?xml version="1.0" encoding="UTF-8"?>
<svg id="Layer_1" data-name="Layer 1" xmlns="http://www.w3.org/2000/svg" xmlns:xlink="http://www.w3.org/1999/xlink" viewBox="0 0 330.552 53.953">
  <defs>
    <style>
      .cls-1 {
        fill: #fff;
      }

      .cls-2 {
        clip-path: url(#clippath);
      }
    </style>
    <clipPath id="clippath">
      <rect class="cls-1" y=".702" width="59.433" height="53.251"/>
    </clipPath>
  </defs>
  <path class="cls-1" d="M106.313,4.797h-18.412v4.603h13.517c2.723,0,4.895,2.204,4.895,4.895v4.02c0,2.723-2.172,4.895-4.895,4.895h-18.12v-4.603h18.412v-4.603h-13.517c-2.723,0-4.895-2.204-4.895-4.895v-4.02c0-2.723,2.172-4.895,4.895-4.895h18.12v4.603ZM128.632.194c2.723,0,4.928,2.172,4.928,4.895v13.225c0,2.723-2.205,4.895-4.928,4.895h-14.165c-2.723,0-4.895-2.172-4.895-4.895V5.089c0-2.723,2.172-4.895,4.895-4.895h14.165ZM128.924,4.797h-14.749v13.809h14.749V4.797ZM141.756,18.444h17.958v4.96h-19.741c-1.751,0-3.177-1.426-3.177-3.177V0h4.96v18.444ZM182.944.194c2.204,0,3.987,1.75,3.987,3.955v19.06h-4.636v-7.553h-14.749v7.553h-4.603V4.149c0-2.204,1.751-3.955,3.955-3.955h16.046ZM182.295,4.797h-14.749v6.256h14.749v-6.256ZM209.519.194h4.636v20.033c0,1.653-1.362,2.982-3.015,2.982h-3.566c-1.134.032-2.139-.583-2.658-1.588l-8.946-16.824h-1.2v18.412h-4.603V3.209c0-1.686,1.329-3.015,2.983-3.015h3.76c1.102,0,2.139.583,2.658,1.588l8.946,16.824h1.005V.194ZM237.391.194c2.205,0,3.987,1.75,3.987,3.955v19.06h-4.635v-7.553h-14.749v7.553h-4.603V4.149c0-2.204,1.751-3.955,3.955-3.955h16.045ZM236.743,4.797h-14.749v6.256h14.749v-6.256ZM105.859,34.797h-17.958v4.603h17.958v4.603h-17.958v9.206h-4.603v-23.015h22.561v4.603ZM128.158,30.194c2.722,0,4.927,2.172,4.927,4.895v13.226c0,2.723-2.205,4.895-4.927,4.895h-14.166c-2.723,0-4.895-2.172-4.895-4.895v-13.226c0-2.723,2.172-4.895,4.895-4.895h14.166ZM128.449,34.797h-14.749v13.809h14.749v-13.809ZM155.673,30.194h4.635v15.3c-.032,4.279-3.468,7.715-7.747,7.715h-8.525c-4.279,0-7.715-3.436-7.715-7.715v-15.3h4.603v14.36c0,2.237,1.815,4.052,4.052,4.052h6.645c2.237,0,4.052-1.815,4.052-4.052v-14.36ZM182.897,30.194h4.635v20.033c0,1.653-1.361,2.982-3.014,2.982h-3.566c-1.135.032-2.139-.583-2.658-1.588l-8.947-16.823h-1.199v18.412h-4.603v-20c0-1.686,1.329-3.015,2.982-3.015h3.76c1.102,0,2.14.583,2.658,1.588l8.947,16.823h1.005v-18.412ZM207.009,30.194c4.279,0,7.715,3.469,7.747,7.715v7.585c-.032,4.279-3.468,7.715-7.747,7.715h-16.24v-23.015h16.24ZM210.121,38.882c0-2.269-1.816-4.084-4.052-4.084h-10.697v13.809h10.697c2.236,0,4.052-1.815,4.052-4.052v-5.673ZM237.993,30.194c2.204,0,3.987,1.75,3.987,3.955v19.06h-4.635v-7.553h-14.749v7.553h-4.603v-19.06c0-2.204,1.75-3.955,3.954-3.955h16.046ZM237.345,34.797h-14.749v6.256h14.749v-6.256ZM245.216,30.194h23.015v4.603h-9.206v18.412h-4.603v-18.412h-9.206v-4.603ZM276.094,53.209h-4.603v-23.015h4.603v23.015ZM298.401,30.194c2.723,0,4.927,2.172,4.927,4.895v13.226c0,2.723-2.204,4.895-4.927,4.895h-14.165c-2.723,0-4.895-2.172-4.895-4.895v-13.226c0-2.723,2.172-4.895,4.895-4.895h14.165ZM298.693,34.797h-14.749v13.809h14.749v-13.809ZM325.917,30.194h4.635v20.033c0,1.653-1.361,2.982-3.014,2.982h-3.566c-1.135.032-2.139-.583-2.658-1.588l-8.947-16.823h-1.199v18.412h-4.603v-20c0-1.686,1.329-3.015,2.982-3.015h3.76c1.102,0,2.14.583,2.658,1.588l8.947,16.823h1.005v-18.412Z"/>
  <g>
    <rect class="cls-1" y=".702" width="59.433" height="53.251"/>
    <g class="cls-2">
      <path class="cls-1" d="M59.127,42.687l-9.811,10.541c-.213.229-.471.412-.758.536-.287.125-.596.189-.909.189H1.139c-.222,0-.439-.065-.625-.187-.186-.122-.332-.296-.42-.499-.088-.204-.116-.429-.078-.648s.138-.422.29-.585l9.819-10.541c.213-.228.47-.411.756-.535.286-.125.594-.189.906-.19h46.508c.222,0,.439.065.625.187.185.122.331.295.42.499.088.204.116.429.078.648-.038.219-.138.422-.29.585ZM49.316,21.46c-.213-.229-.471-.412-.758-.536-.287-.125-.596-.189-.909-.189H1.139c-.222,0-.439.065-.625.187-.186.122-.332.296-.42.499-.088.204-.116.429-.078.648.038.219.138.423.29.585l9.819,10.541c.213.228.47.411.756.535.286.125.594.189.906.19h46.508c.222,0,.439-.065.625-.187.185-.122.331-.295.42-.499.088-.204.116-.429.078-.648-.038-.219-.138-.422-.29-.585l-9.811-10.541ZM1.139,13.888h46.51c.313,0,.622-.064.909-.189.287-.125.545-.307.758-.536l9.811-10.541c.151-.163.252-.366.29-.585.038-.219.011-.444-.078-.648-.089-.204-.235-.377-.42-.499-.186-.122-.403-.187-.625-.187H11.787c-.312,0-.62.065-.906.19-.286.125-.543.307-.756.535L.309,11.968c-.151.162-.252.366-.29.584s-.011.444.077.648c.088.204.234.377.419.5.185.122.402.187.624.188Z"/>
    </g>
  </g>
</svg>