<?xml version="1.0" encoding="UTF-8"?>
<svg id="Layer_1" xmlns="http://www.w3.org/2000/svg" xmlns:xlink="http://www.w3.org/1999/xlink" version="1.1" viewBox="0 0 646 96">
  <!-- Generator: Adobe Illustrator 29.4.0, SVG Export Plug-In . SVG Version: 2.1.0 Build 152)  -->
  <defs>
    <style>
      .st0 {
        fill: none;
      }

      .st1 {
        fill: url(#linear-gradient);
      }

      .st2 {
        clip-path: url(#clippath);
      }
    </style>
    <clipPath id="clippath">
      <rect class="st0" width="646" height="96"/>
    </clipPath>
    <linearGradient id="linear-gradient" x1="10.81" y1="-.29" x2="98.89" y2="99.01" gradientTransform="translate(0 98) scale(1 -1)" gradientUnits="userSpaceOnUse">
      <stop offset=".08" stop-color="#9945ff"/>
      <stop offset=".3" stop-color="#8752f3"/>
      <stop offset=".5" stop-color="#5497d5"/>
      <stop offset=".6" stop-color="#43b4ca"/>
      <stop offset=".72" stop-color="#28e0b9"/>
      <stop offset=".97" stop-color="#19fb9b"/>
    </linearGradient>
  </defs>
  <g class="st2">
    <g>
      <path class="st1" d="M108.53,75.69l-17.72,19c-.38.41-.85.74-1.36.97-.52.23-1.07.34-1.64.34H3.81c-.4,0-.79-.12-1.13-.34-.34-.22-.6-.53-.76-.9-.16-.37-.21-.77-.14-1.17.07-.4.25-.76.52-1.06l17.7-19c.38-.41.85-.74,1.36-.97.52-.23,1.07-.34,1.64-.34h84c.4,0,.8.1,1.14.32.34.22.61.53.77.9.16.37.21.78.14,1.18s-.25.77-.53,1.06ZM90.81,37.42c-.38-.41-.85-.74-1.36-.96-.52-.23-1.07-.34-1.64-.35H3.81c-.4,0-.79.12-1.13.34-.34.22-.6.53-.76.9-.16.37-.21.77-.14,1.17.07.4.25.76.52,1.06l17.7,19.01c.38.41.85.74,1.36.96.52.23,1.07.34,1.64.35h84c.4,0,.79-.12,1.12-.34.33-.22.6-.53.75-.9.16-.37.21-.77.14-1.17-.07-.39-.25-.76-.52-1.05l-17.69-19.01ZM3.81,23.77h84c.56,0,1.12-.12,1.64-.34.52-.23.98-.55,1.36-.97L108.53,3.46c.28-.29.46-.66.53-1.06.07-.4.02-.81-.14-1.18-.16-.37-.43-.68-.77-.9-.34-.22-.74-.33-1.14-.32H23c-.56,0-1.12.12-1.64.34-.52.23-.98.55-1.36.97L2.3,20.31c-.27.29-.45.66-.52,1.06-.07.39-.02.8.14,1.17.16.37.42.68.76.9.34.22.73.34,1.13.34Z"/>
      <path d="M210.94,40.6h-44.94v-14.8h56.62v-14.8h-56.77c-1.94-.01-3.86.36-5.66,1.09-1.8.73-3.43,1.81-4.81,3.18-1.38,1.36-2.48,2.99-3.23,4.77-.75,1.79-1.15,3.71-1.15,5.65v15c0,1.94.4,3.86,1.15,5.65.75,1.79,1.85,3.42,3.23,4.78,1.38,1.37,3.01,2.45,4.81,3.18,1.8.73,3.72,1.11,5.66,1.1h45v14.8h-58.78v14.8h58.87c1.94.01,3.86-.36,5.66-1.09,1.8-.73,3.43-1.81,4.81-3.18,1.38-1.36,2.48-2.99,3.23-4.77.75-1.79,1.15-3.71,1.15-5.65v-15c0-1.94-.4-3.86-1.15-5.65-.75-1.79-1.85-3.42-3.23-4.78-1.38-1.37-3.01-2.45-4.81-3.18s-3.72-1.11-5.66-1.1Z"/>
      <path d="M298,11h-45.11c-1.94-.02-3.87.35-5.67,1.08-1.8.73-3.44,1.81-4.82,3.17-1.38,1.36-2.48,2.99-3.24,4.78-.75,1.79-1.15,3.71-1.16,5.66v44.62c0,1.94.4,3.86,1.16,5.66.75,1.79,1.85,3.41,3.24,4.78,1.38,1.36,3.02,2.44,4.82,3.17,1.8.73,3.73,1.1,5.67,1.08h45.11c1.94.01,3.86-.36,5.66-1.09,1.8-.73,3.43-1.81,4.81-3.18,1.38-1.36,2.48-2.99,3.23-4.77.75-1.79,1.14-3.71,1.15-5.65V25.69c-.01-1.94-.4-3.86-1.15-5.65-.75-1.79-1.85-3.41-3.23-4.77-1.38-1.36-3.01-2.44-4.81-3.18-1.8-.73-3.72-1.1-5.66-1.09ZM297.89,70.2h-44.89V25.8h44.87l.02,44.4Z"/>
      <path d="M456,11h-44c-1.94-.01-3.86.36-5.66,1.09-1.8.73-3.43,1.81-4.81,3.18-1.38,1.36-2.48,2.99-3.23,4.77-.75,1.79-1.14,3.71-1.15,5.65v59.31h15v-24.31h43.8v24.31h15V25.69c-.01-1.95-.41-3.87-1.16-5.67-.76-1.79-1.86-3.42-3.25-4.79-1.39-1.37-3.04-2.44-4.84-3.17-1.81-.73-3.74-1.09-5.69-1.06ZM455.89,45.89h-43.8v-20.09h43.8v20.09Z"/>
      <path d="M631.15,11h-44c-1.94-.01-3.86.36-5.66,1.09-1.8.73-3.43,1.81-4.81,3.18-1.38,1.36-2.48,2.99-3.23,4.77-.75,1.79-1.15,3.71-1.16,5.65v59.31h15v-24.31h43.7v24.31h15V25.69c-.01-1.94-.4-3.86-1.16-5.65-.75-1.79-1.85-3.41-3.23-4.77-1.38-1.36-3.01-2.44-4.81-3.18-1.8-.73-3.72-1.1-5.66-1.09ZM631,45.89h-43.8v-20.09h43.8v20.09Z"/>
      <path d="M544,70.2h-6l-21.45-53c-.73-1.83-2-3.4-3.63-4.5-1.63-1.1-3.56-1.7-5.53-1.7h-13.31c-1.29,0-2.58.24-3.77.73-1.2.49-2.29,1.21-3.21,2.12-.92.91-1.65,1.99-2.15,3.18-.5,1.19-.76,2.47-.77,3.77v64.2h15V25.8h6l21.44,53c.75,1.82,2.02,3.39,3.66,4.48,1.64,1.1,3.57,1.68,5.54,1.68h13.31c1.29,0,2.58-.24,3.77-.73,1.2-.49,2.29-1.21,3.21-2.12.92-.91,1.65-1.99,2.15-3.18.5-1.19.76-2.47.77-3.77V11h-15.03v59.2Z"/>
      <path d="M341.1,11h-15v59.31c0,1.94.4,3.87,1.16,5.66.76,1.79,1.86,3.42,3.24,4.78s3.02,2.44,4.83,3.17c1.8.73,3.73,1.1,5.67,1.08h45v-14.8h-44.9V11Z"/>
    </g>
  </g>
</svg>