<?xml version="1.0" encoding="UTF-8"?>
<svg id="Layer_1" xmlns="http://www.w3.org/2000/svg" version="1.1" viewBox="0 0 140 28">
  <!-- Generator: Adobe Illustrator 29.3.0, SVG Export Plug-In . SVG Version: 2.1.0 Build 146)  -->
  <defs>
    <style>
      .st0 {
        fill: #fff;
      }
    </style>
  </defs>
  <path class="st0" d="M16.1,18.9h8.4v9.1h3.5V0l-11.9,18.9Z"/>
  <path class="st0" d="M0,28L11.9,9.1H3.5V0H0v28Z"/>
  <path class="st0" d="M133.7,19.1h-9.8l-2.8,5.4h-3.5s11.2-21.7,11.2-21.7l11.2,21.7h-3.5l-2.8-5.4ZM132.3,16.4l-2.8-6.1-.7-1.4-.7,1.4-2.8,6.1h7Z"/>
  <path class="st0" d="M105,24.5h-3.5V7h-5.2v-3.5h14v3.5h-5.2v17.5Z"/>
  <path class="st0" d="M73.5,3.5h11.9v3.5h-8.4v4.4h6.7v3.3h-6.7v6.3h8.4v3.5h-11.9V3.5Z"/>
  <path class="st0" d="M55,7h-9.5v-3.5h15.8l-11.2,17.5h11.2v3.5h-17.6l11.3-17.5Z"/>
</svg>